# This file uses centimeters as units for non-parametric coordinates.

mtllib DeviceSwitchON.mtl
g default
v -6.906758 2.353608 6.691010
v -6.887462 2.336208 6.699402
v -6.861683 2.329912 6.701420
v -6.861733 2.344651 6.724582
v -6.862307 2.369872 6.735012
v -6.863192 2.396308 6.728921
v -6.888541 2.392745 6.722746
v -6.907285 2.385838 6.704288
v -6.914392 2.377441 6.678499
v -6.206873 2.351847 6.685013
v -6.188766 2.370107 6.675831
v -6.182771 2.394253 6.663032
v -6.189234 2.402527 6.688964
v -6.207693 2.408786 6.708084
v -6.233191 2.411353 6.715263
v -6.232427 2.384638 6.721523
v -6.232061 2.359203 6.711212
v -6.232226 2.344376 6.688114
v -6.942685 3.623145 6.371535
v -6.923654 3.627193 6.390690
v -6.897946 3.628377 6.397472
v -6.898919 3.654656 6.389590
v -6.899974 3.671528 6.368156
v -6.900726 3.672833 6.341054
v -6.925812 3.664988 6.342633
v -6.943826 3.644666 6.344130
v -6.949930 3.617319 6.345144
v -6.243066 3.642833 6.376302
v -6.224694 3.639645 6.356355
v -6.218309 3.634132 6.329677
v -6.225770 3.661079 6.328730
v -6.244955 3.680483 6.327785
v -6.270714 3.687139 6.327097
v -6.270089 3.685916 6.354510
v -6.269244 3.669093 6.376184
v -6.268489 3.642842 6.384164
v -6.935012 2.964077 6.340780
v -6.934330 2.940287 6.347176
v -6.933595 2.918048 6.357768
v -6.926292 2.925203 6.383547
v -6.907118 2.930765 6.402124
v -6.881210 2.933244 6.408523
v -6.881921 2.955441 6.397904
v -6.882603 2.979206 6.391514
v -6.883230 3.003738 6.389571
v -6.909139 3.001289 6.383163
v -6.928314 2.995760 6.364577
v -6.935618 2.988633 6.338791
v -6.254241 2.993645 6.378230
v -6.253560 2.969882 6.384620
v -6.252812 2.947685 6.395238
v -6.227110 2.946391 6.387748
v -6.208502 2.941698 6.368372
v -6.201974 2.934860 6.342301
v -6.202709 2.957099 6.331708
v -6.203392 2.980888 6.325311
v -6.203998 3.005444 6.323323
v -6.210525 3.012254 6.349402
v -6.229131 3.016915 6.368787
v -6.254833 3.018178 6.376285
v -6.958811 3.459764 5.753839
v -6.952607 3.484862 5.746988
v -6.934227 3.503554 5.741680
v -6.908595 3.510829 5.739337
v -6.280264 3.525268 5.726053
v -6.254250 3.519179 5.727304
v -6.234824 3.501356 5.731813
v -6.227190 3.476576 5.738372
v -6.870107 2.168067 6.100353
v -6.896122 2.174156 6.099103
v -6.915548 2.191978 6.094593
v -6.923182 2.216759 6.088034
v -6.191562 2.233571 6.072567
v -6.197765 2.208472 6.079418
v -6.216146 2.189781 6.084726
v -6.241776 2.182506 6.087070
v -6.210387 2.890343 5.895987
v -6.209713 2.866830 5.902308
v -6.209039 2.843317 5.908630
v -6.208365 2.819804 5.914952
v -6.939986 2.802992 5.930420
v -6.940660 2.826505 5.924098
v -6.941334 2.850018 5.917776
v -6.942008 2.873531 5.911454
v -6.902791 2.364044 6.711792
v -6.883909 2.346830 6.720025
v -6.884376 2.371012 6.729997
v -6.210137 2.362377 6.705725
v -6.192388 2.380476 6.696689
v -6.210487 2.386728 6.715593
v -6.939537 3.646115 6.367174
v -6.920915 3.650047 6.386105
v -6.921844 3.666199 6.365546
v -6.247141 3.665493 6.371784
v -6.229130 3.662387 6.352028
v -6.247950 3.681596 6.351035
v -6.927706 2.971211 6.366547
v -6.927025 2.947426 6.372942
v -6.907842 2.952973 6.391509
v -6.908523 2.976748 6.385117
v -6.228533 2.992374 6.370741
v -6.227852 2.968599 6.377134
v -6.209240 2.963921 6.357767
v -6.209922 2.987705 6.351372
vt 0.239401 0.054923
vt 0.239433 0.063633
vt 0.047900 0.107226
vt 0.046039 0.099145
vt 0.248024 0.062054
vt 0.246873 0.054707
vt 0.230096 0.265267
vt 0.091660 0.297168
vt 0.239201 0.048543
vt 0.044676 0.093230
vt 0.238496 0.263336
vt 0.246656 0.048408
vt 0.253128 0.053758
vt 0.254342 0.061046
vt 0.230449 0.273169
vt 0.093415 0.304786
vt 0.244647 0.261925
vt 0.238843 0.271235
vt 0.232224 0.280876
vt 0.095171 0.312405
vt 0.244988 0.269821
vt 0.240619 0.278942
vt 0.235364 0.288136
vt 0.096926 0.320023
vt 0.246763 0.277524
vt 0.243763 0.286196
vt 0.331985 0.465359
vt 0.140685 0.509965
vt 0.249911 0.284775
vt 0.340358 0.462960
vt 0.335839 0.473197
vt 0.142547 0.518045
vt 0.346444 0.461034
vt 0.342597 0.470092
vt 0.338527 0.479003
vt 0.143910 0.523961
vt 0.348600 0.468171
vt 0.345211 0.475853
vt 0.463875 0.063606
vt 0.463908 0.054897
vt 0.657270 0.099119
vt 0.655408 0.107199
vt 0.455297 0.062103
vt 0.456444 0.054724
vt 0.464108 0.048517
vt 0.658633 0.093203
vt 0.611649 0.297141
vt 0.473213 0.265240
vt 0.464813 0.263309
vt 0.448983 0.061172
vt 0.450191 0.053820
vt 0.456660 0.048408
vt 0.472860 0.273142
vt 0.609894 0.304760
vt 0.464466 0.271209
vt 0.458662 0.261898
vt 0.471085 0.280850
vt 0.608138 0.312378
vt 0.462690 0.278915
vt 0.458320 0.269795
vt 0.467945 0.288110
vt 0.606383 0.319996
vt 0.459546 0.286170
vt 0.456546 0.277498
vt 0.562623 0.509938
vt 0.371324 0.465332
vt 0.362951 0.462934
vt 0.453398 0.284748
vt 0.367545 0.473179
vt 0.560762 0.518019
vt 0.360756 0.470069
vt 0.356865 0.461008
vt 0.364933 0.479002
vt 0.559399 0.523934
vt 0.358187 0.475841
vt 0.354737 0.468146
vt 0.430870 0.737643
vt 0.431183 0.745853
vt 0.236657 0.745755
vt 0.236159 0.737462
vt 0.439654 0.737708
vt 0.438637 0.744775
vt 0.236159 0.535691
vt 0.430870 0.535510
vt 0.439651 0.535505
vt 0.446413 0.737777
vt 0.445109 0.744814
vt 0.431183 0.527301
vt 0.236657 0.527399
vt 0.438631 0.528411
vt 0.446408 0.535505
vt 0.445099 0.528411
vt 0.459830 0.745915
vt 0.459030 0.737799
vt 0.653948 0.737436
vt 0.654447 0.745729
vt 0.451548 0.737751
vt 0.453146 0.744788
vt 0.459237 0.535484
vt 0.653948 0.535665
vt 0.451654 0.535479
vt 0.459981 0.527274
vt 0.654447 0.527373
vt 0.453235 0.528385
vt 0.667698 0.535688
vt 0.667746 0.527274
vt 0.870018 0.527383
vt 0.870012 0.535900
vt 0.659581 0.535855
vt 0.660708 0.528567
vt 0.878222 0.536008
vt 0.877112 0.528656
vt 0.869842 0.736221
vt 0.668049 0.736221
vt 0.659762 0.736734
vt 0.878128 0.736734
vt 0.668056 0.744114
vt 0.869837 0.744115
vt 0.659766 0.744631
vt 0.878126 0.744631
vt 0.668056 0.751814
vt 0.869837 0.751814
vt 0.659766 0.752334
vt 0.878126 0.752334
vt 0.668049 0.759061
vt 0.869842 0.759061
vt 0.659762 0.759584
vt 0.878128 0.759584
vt 0.870012 0.934908
vt 0.667879 0.934908
vt 0.659669 0.935844
vt 0.878221 0.935844
vt 0.667814 0.943547
vt 0.870018 0.943552
vt 0.660747 0.942981
vt 0.877112 0.942982
vt 0.667746 0.951567
vt 0.870018 0.951592
vt 0.660708 0.950663
vt 0.877112 0.950678
vn 0.017241 -0.962146 0.271990
vn -0.239560 -0.934201 0.264347
vn -0.240057 -0.936429 0.255880
vn 0.016822 -0.965527 0.259759
vn -0.696059 -0.687537 0.206868
vn -0.841521 -0.515565 0.161358
vn -0.855506 -0.496480 0.147026
vn -0.694813 -0.691627 0.197196
vn -0.998756 -0.030192 0.039676
vn -0.999084 -0.035141 0.024427
vn -0.003822 0.501391 0.865212
vn 0.007785 0.227300 0.973794
vn 0.023515 0.227817 0.973420
vn 0.017390 0.501869 0.864769
vn 0.020070 -0.378605 0.925341
vn 0.020228 -0.378599 0.925340
vn 0.036903 -0.377975 0.925080
vn 0.036906 -0.377975 0.925080
vn 0.022836 -0.842912 0.537566
vn 0.038465 -0.961669 0.271501
vn 0.038697 -0.842460 0.537368
vn -0.853791 0.235604 0.464254
vn -0.885072 0.213012 0.413853
vn -0.999407 -0.018185 0.029254
vn -0.713030 0.330744 0.618220
vn -0.711784 0.339039 0.615155
vn -0.261222 0.480216 0.837350
vn -0.004812 0.509311 0.860569
vn -0.261560 0.484617 0.834706
vn 0.999873 0.015736 -0.002563
vn 0.870377 -0.476167 0.125335
vn 0.882844 -0.456536 0.110275
vn 0.999783 0.010794 -0.017834
vn 0.735018 -0.654580 0.176843
vn 0.733527 -0.658822 0.167006
vn 0.293163 -0.921917 0.253230
vn 0.038514 -0.965029 0.259300
vn 0.293409 -0.924165 0.244604
vn 0.273037 0.492390 0.826440
vn 0.273181 0.496873 0.823705
vn 0.017790 0.509821 0.860096
vn 0.720552 0.364690 0.589751
vn 0.860338 0.275369 0.428941
vn 0.890089 0.254657 0.378010
vn 0.718996 0.372696 0.586637
vn 0.999530 0.027769 -0.012971
vn 0.010494 0.000266 0.999945
vn -0.246194 -0.008981 0.969179
vn -0.246377 -0.014093 0.969072
vn 0.010013 -0.008940 0.999910
vn -0.701056 -0.014111 0.712967
vn -0.845927 -0.016498 0.533044
vn -0.877263 -0.023763 0.479421
vn -0.699554 -0.022378 0.714229
vn -0.999409 -0.007408 0.033559
vn -0.999267 -0.023021 0.030596
vn -0.038043 0.968264 -0.247018
vn -0.029542 0.998492 0.046282
vn -0.013813 0.998856 0.045789
vn -0.016873 0.968752 -0.247455
vn -0.013259 0.787442 0.616246
vn -0.013102 0.787448 0.616241
vn 0.003566 0.787988 0.615680
vn 0.003569 0.787988 0.615680
vn 0.005720 0.288353 0.957507
vn 0.031763 0.000712 0.999495
vn 0.021574 0.288871 0.957125
vn -0.870702 0.480181 -0.106327
vn -0.883944 0.454744 -0.108858
vn -0.999781 -0.010839 0.017889
vn -0.736697 0.658272 -0.154774
vn -0.735384 0.657098 -0.165629
vn -0.293925 0.926243 -0.235972
vn -0.038484 0.965030 -0.259299
vn -0.294344 0.923903 -0.244470
vn 0.999220 0.038533 -0.008687
vn 0.867556 0.023054 0.496805
vn 0.896900 0.017006 0.441907
vn 0.999670 0.022910 -0.011663
vn 0.730475 0.019022 0.682674
vn 0.729394 0.010461 0.684014
vn 0.287003 0.003400 0.957924
vn 0.032654 -0.008420 0.999431
vn 0.287427 -0.001840 0.957801
vn 0.239858 0.938843 -0.247067
vn 0.240108 0.936477 -0.255654
vn -0.016831 0.965529 -0.259750
vn 0.696384 0.693270 -0.185543
vn 0.841827 0.520557 -0.142647
vn 0.855527 0.496740 -0.146021
vn 0.694811 0.691925 -0.196155
vn 0.999085 0.035148 -0.024381
vn -0.999262 -0.018387 0.033731
vn -0.999513 -0.022970 0.021133
vn -0.999513 -0.022969 0.021131
vn -0.999199 -0.020594 0.034320
vn -0.999513 -0.022961 0.021126
vn -0.999513 -0.022966 0.021130
vn 0.005816 0.170112 0.985408
vn 0.028009 0.170634 0.984936
vn 0.000741 0.347162 0.937805
vn 0.022935 0.347661 0.937340
vn 0.999648 0.025331 -0.007934
vn 0.999513 0.022971 -0.021131
vn 0.999513 0.022966 -0.021130
vn 0.999584 0.027568 -0.008542
vn 0.999512 0.022989 -0.021144
vn 0.999513 0.022968 -0.021132
vn -0.951385 -0.130492 0.278996
vn -0.741472 -0.267839 0.615208
vn -0.510198 -0.478167 0.714881
vn -0.216831 -0.837119 0.502212
vn -0.515886 -0.181786 0.837147
vn -0.234596 0.236566 0.942869
vn 0.275510 -0.823417 0.496063
vn 0.558950 -0.447899 0.697826
vn 0.775820 -0.227284 0.588596
vn 0.966684 -0.083999 0.241796
vn 0.554696 -0.150514 0.818326
vn 0.260078 0.252281 0.932048
vn -0.960692 0.197536 0.195065
vn -0.763047 0.491165 0.420138
vn -0.534886 0.538330 0.651228
vn -0.232450 0.247064 0.940705
vn -0.546258 0.736331 0.399272
vn -0.270583 0.962309 0.027329
vn 0.259694 0.263070 0.929168
vn 0.534018 0.569799 0.624623
vn 0.754029 0.532843 0.384081
vn 0.957240 0.245415 0.153176
vn 0.524155 0.766452 0.371232
vn 0.224007 0.974506 0.012589
vn -0.871016 0.061766 0.487356
vn -0.873385 0.144337 0.465151
vn -0.710530 0.227153 0.665995
vn -0.255706 0.327284 0.909670
vn -0.250886 0.159464 0.954792
vn -0.706884 0.099587 0.700284
vn 0.283408 0.171799 0.943485
vn 0.278621 0.339531 0.898381
vn 0.726916 0.260139 0.635548
vn 0.884733 0.184720 0.427931
vn 0.887105 0.102144 0.450123
vn 0.730579 0.132606 0.669829
s 1
g OffSwitch
usemtl Plug2SG
f 3/77/1 2/78/2 70/79/3 69/80/4
s 2
f 2/9/5 1/1/6 71/4/7 70/10/8
f 1/1/6 9/2/9 72/3/10 71/4/7
s 3
f 6/105/11 5/106/12 16/107/13 15/108/14
s 2
f 5/86/15 4/81/16 17/85/17 16/91/18
s 1
f 4/81/19 3/77/1 18/84/20 17/85/21
s 2
f 9/2/9 8/5/22 40/11/23 39/7/24
f 8/5/22 7/14/25 41/17/26 40/11/23
s 3
f 7/109/27 6/105/11 42/114/28 41/115/29
s 2
f 12/39/30 11/40/31 74/41/32 73/42/33
f 11/40/31 10/45/34 75/46/35 74/41/32
s 1
f 10/88/36 18/84/20 76/83/37 75/89/38
s 3
f 15/108/14 14/111/39 52/116/40 51/113/41
s 2
f 14/50/42 13/43/43 53/49/44 52/56/45
f 13/43/43 12/39/30 54/48/46 53/49/44
s 3
f 21/130/47 20/131/48 46/127/49 45/125/50
s 2
f 20/33/51 19/30/52 47/26/53 46/29/54
f 19/30/52 27/27/55 48/23/56 47/26/53
s 9
f 24/94/57 23/97/58 34/101/59 33/99/60
s 2
f 23/137/61 22/133/62 35/134/63 34/138/64
s 3
f 22/133/65 21/130/47 36/129/66 35/134/67
s 2
f 27/27/55 26/31/68 62/32/69 61/28/70
f 26/31/68 25/35/71 63/36/72 62/32/69
s 9
f 25/93/73 24/94/57 64/95/74 63/96/75
s 2
f 30/66/76 29/67/77 58/63/78 57/61/79
f 29/67/77 28/72/80 59/68/81 58/63/78
s 3
f 28/132/82 36/129/66 60/126/83 59/128/84
s 9
f 33/99/60 32/102/85 66/103/86 65/100/87
s 2
f 32/73/88 31/69/89 67/70/90 66/74/91
f 31/69/89 30/66/76 68/65/92 67/70/90
f 39/7/24 38/15/93 82/16/94 81/8/95
f 38/15/93 37/19/96 83/20/97 82/16/94
f 37/19/96 48/23/56 84/24/98 83/20/97
s 3
f 45/125/50 44/121/99 49/122/100 60/126/83
f 44/121/99 43/117/101 50/118/102 49/122/100
f 43/117/101 42/114/28 51/113/41 50/118/102
s 2
f 57/61/79 56/57/103 78/58/104 77/62/105
f 56/57/103 55/53/106 79/54/107 78/58/104
f 55/53/106 54/48/46 80/47/108 79/54/107
s 3
f 6/105/11 15/108/14 51/113/41 42/114/28
s 9
f 24/94/57 33/99/60 65/100/87 64/95/74
s 1
f 3/77/1 69/80/4 76/83/37 18/84/20
s 2
f 12/39/30 73/42/33 80/47/108 54/48/46
f 72/3/10 9/2/9 39/7/24 81/8/95
f 57/61/79 77/62/105 68/65/92 30/66/76
s 3
f 45/125/50 60/126/83 36/129/66 21/130/47
s 2
f 84/24/98 48/23/56 27/27/55 61/28/70
f 8/5/22 9/2/9 1/1/6 85/6/109
f 85/6/110 1/1/6 2/9/5 86/12/111
s 1
f 2/78/2 3/77/1 4/81/19 86/82/112
s 2
f 86/82/111 4/81/16 5/86/15 87/87/113
s 3
f 5/106/12 6/105/11 7/109/27 87/110/114
s 2
f 87/13/113 7/14/25 8/5/22 85/6/110
f 85/6/110 86/12/111 87/13/113
s 1
f 17/85/21 18/84/20 10/88/36 88/90/115
s 2
f 88/52/116 10/45/34 11/40/31 89/44/117
f 11/40/31 12/39/30 13/43/43 89/44/118
f 89/44/117 13/43/43 14/50/42 90/51/119
s 3
f 14/111/39 15/108/14 16/107/13 90/112/120
s 2
f 90/92/119 16/91/18 17/85/17 88/90/116
f 88/52/116 89/44/117 90/51/119
f 26/31/68 27/27/55 19/30/52 91/34/121
f 91/34/122 19/30/52 20/33/51 92/37/123
s 3
f 20/131/48 21/130/47 22/133/65 92/135/124
s 2
f 92/135/123 22/133/62 23/137/61 93/139/125
s 9
f 23/97/58 24/94/57 25/93/73 93/98/126
s 2
f 93/38/125 25/35/71 26/31/68 91/34/122
f 91/34/122 92/37/123 93/38/125
s 3
f 35/134/67 36/129/66 28/132/82 94/136/127
s 2
f 94/76/128 28/72/80 29/67/77 95/71/129
f 29/67/77 30/66/76 31/69/89 95/71/130
f 95/71/129 31/69/89 32/73/88 96/75/131
s 9
f 32/102/85 33/99/60 34/101/59 96/104/132
s 2
f 96/140/131 34/138/64 35/134/63 94/136/128
f 94/76/128 95/71/129 96/75/131
f 47/26/53 48/23/56 37/19/96 97/22/133
f 97/22/133 37/19/96 38/15/93 98/18/134
f 38/15/93 39/7/24 40/11/23 98/18/134
f 98/18/134 40/11/23 41/17/26 99/21/135
s 3
f 41/115/29 42/114/28 43/117/101 99/119/136
f 99/119/136 43/117/101 44/121/99 100/123/137
f 44/121/99 45/125/50 46/127/49 100/123/137
s 2
f 100/25/138 46/29/54 47/26/53 97/22/133
f 97/22/133 98/18/134 99/21/135 100/25/138
s 3
f 59/128/84 60/126/83 49/122/100 101/124/139
f 101/124/139 49/122/100 50/118/102 102/120/140
f 50/118/102 51/113/41 52/116/40 102/120/140
s 2
f 102/60/141 52/56/45 53/49/44 103/55/142
f 53/49/44 54/48/46 55/53/106 103/55/142
f 103/55/142 55/53/106 56/57/103 104/59/143
f 56/57/103 57/61/79 58/63/78 104/59/143
f 104/59/143 58/63/78 59/68/81 101/64/144
f 101/64/144 102/60/141 103/55/142 104/59/143
