# This file uses centimeters as units for non-parametric coordinates.

mtllib DeviceSwirchOFF.mtl
g default
v -6.906758 2.258646 6.311035
v -6.887462 2.239451 6.308862
v -6.861683 2.233048 6.307214
v -6.861733 2.233174 6.334667
v -6.862307 2.248954 6.356935
v -6.863192 2.274569 6.365871
v -6.888541 2.274845 6.358747
v -6.907285 2.278840 6.339449
v -6.914392 2.285481 6.313153
v -6.206873 2.260353 6.305023
v -6.188766 2.280697 6.306986
v -6.182771 2.307950 6.309027
v -6.189234 2.301128 6.335378
v -6.207693 2.296233 6.354893
v -6.233191 2.294578 6.362334
v -6.232427 2.268638 6.353392
v -6.232061 2.252612 6.331111
v -6.232226 2.252379 6.303664
v -6.942685 3.503099 6.717395
v -6.923654 3.496314 6.735760
v -6.897946 3.493701 6.742129
v -6.898919 3.520137 6.749467
v -6.899974 3.545837 6.740325
v -6.900726 3.561386 6.718089
v -6.925812 3.553907 6.715243
v -6.943826 3.535914 6.705678
v -6.949930 3.512236 6.691960
v -6.243066 3.517216 6.731922
v -6.224694 3.525150 6.713346
v -6.218309 3.534705 6.687835
v -6.225770 3.558010 6.701396
v -6.244955 3.574932 6.710939
v -6.270714 3.580930 6.713904
v -6.270089 3.565284 6.736447
v -6.269244 3.539498 6.745820
v -6.268489 3.513033 6.738579
v -6.935012 2.961846 6.340085
v -6.934330 2.938308 6.332818
v -6.933595 2.913846 6.329926
v -6.926292 2.906160 6.355551
v -6.907118 2.900964 6.374234
v -6.881210 2.899650 6.380970
v -6.881921 2.924092 6.383816
v -6.882603 2.947606 6.391076
v -6.883230 2.969398 6.402508
v -6.909139 2.970741 6.395781
v -6.928314 2.975969 6.377108
v -6.935618 2.983683 6.351491
v -6.254241 2.966903 6.387532
v -6.253560 2.943391 6.380273
v -6.252812 2.918950 6.377426
v -6.227110 2.921848 6.370399
v -6.208502 2.928204 6.351503
v -6.201974 2.936315 6.325800
v -6.202709 2.960778 6.328691
v -6.203392 2.984315 6.335958
v -6.203998 3.006152 6.347364
v -6.210525 2.998013 6.373060
v -6.229131 2.991625 6.391946
v -6.254833 2.988697 6.398963
v -6.958811 3.694096 6.107672
v -6.952607 3.718983 6.115253
v -6.934227 3.737628 6.120725
v -6.908595 3.745032 6.122620
v -6.280264 3.764329 6.119076
v -6.254250 3.758511 6.116889
v -6.234824 3.741027 6.111205
v -6.227190 3.716565 6.103547
v -6.870107 2.416482 5.712379
v -6.896122 2.422300 5.714567
v -6.915548 2.439784 5.720251
v -6.923182 2.464247 5.727910
v -6.191562 2.486715 5.723783
v -6.197765 2.461828 5.716203
v -6.216146 2.443184 5.710731
v -6.241776 2.435779 5.708837
v -6.210387 3.136537 5.924440
v -6.209713 3.113272 5.917256
v -6.209039 3.090009 5.910073
v -6.208365 3.066744 5.902889
v -6.939986 3.044275 5.907016
v -6.940660 3.067539 5.914199
v -6.941334 3.090803 5.921383
v -6.942008 3.114068 5.928567
v -6.902791 2.256400 6.334181
v -6.883909 2.237447 6.331973
v -6.884376 2.252593 6.353299
v -6.210137 2.258223 6.328160
v -6.192388 2.278353 6.330161
v -6.210487 2.273567 6.349489
v -6.939537 3.524858 6.725948
v -6.920915 3.518095 6.744061
v -6.921844 3.542719 6.735276
v -6.247141 3.538797 6.740177
v -6.229130 3.546699 6.721807
v -6.247950 3.563481 6.731205
v -6.927706 2.954148 6.365689
v -6.927025 2.930615 6.358423
v -6.907842 2.925412 6.377089
v -6.908523 2.948935 6.384354
v -6.228533 2.969819 6.380519
v -6.227852 2.946295 6.373255
v -6.209240 2.952660 6.354375
v -6.209922 2.976193 6.361641
vt 0.239401 0.054923
vt 0.239433 0.063633
vt 0.047900 0.107226
vt 0.046039 0.099145
vt 0.248024 0.062054
vt 0.246873 0.054707
vt 0.230096 0.265267
vt 0.091660 0.297168
vt 0.239201 0.048543
vt 0.044676 0.093230
vt 0.238496 0.263336
vt 0.246656 0.048408
vt 0.253128 0.053758
vt 0.254342 0.061046
vt 0.230449 0.273169
vt 0.093415 0.304786
vt 0.244647 0.261925
vt 0.238843 0.271235
vt 0.232224 0.280876
vt 0.095171 0.312405
vt 0.244988 0.269821
vt 0.240619 0.278942
vt 0.235364 0.288136
vt 0.096926 0.320023
vt 0.246763 0.277524
vt 0.243763 0.286196
vt 0.331985 0.465359
vt 0.140685 0.509965
vt 0.249911 0.284775
vt 0.340358 0.462960
vt 0.335839 0.473197
vt 0.142547 0.518045
vt 0.346444 0.461034
vt 0.342597 0.470092
vt 0.338527 0.479003
vt 0.143910 0.523961
vt 0.348600 0.468171
vt 0.345211 0.475853
vt 0.463875 0.063606
vt 0.463908 0.054897
vt 0.657270 0.099119
vt 0.655408 0.107199
vt 0.455297 0.062103
vt 0.456444 0.054724
vt 0.464108 0.048517
vt 0.658633 0.093203
vt 0.611649 0.297141
vt 0.473213 0.265240
vt 0.464813 0.263309
vt 0.448983 0.061172
vt 0.450191 0.053820
vt 0.456660 0.048408
vt 0.472860 0.273142
vt 0.609894 0.304760
vt 0.464466 0.271209
vt 0.458662 0.261898
vt 0.471085 0.280850
vt 0.608138 0.312378
vt 0.462690 0.278915
vt 0.458320 0.269795
vt 0.467945 0.288110
vt 0.606383 0.319996
vt 0.459546 0.286170
vt 0.456546 0.277498
vt 0.562623 0.509938
vt 0.371324 0.465332
vt 0.362951 0.462934
vt 0.453398 0.284748
vt 0.367545 0.473179
vt 0.560762 0.518019
vt 0.360756 0.470069
vt 0.356865 0.461008
vt 0.364933 0.479002
vt 0.559399 0.523934
vt 0.358187 0.475841
vt 0.354737 0.468146
vt 0.430870 0.737643
vt 0.431183 0.745853
vt 0.236657 0.745755
vt 0.236159 0.737462
vt 0.439654 0.737708
vt 0.438637 0.744775
vt 0.236159 0.535691
vt 0.430870 0.535510
vt 0.439651 0.535505
vt 0.446413 0.737777
vt 0.445109 0.744814
vt 0.431183 0.527301
vt 0.236657 0.527399
vt 0.438631 0.528411
vt 0.446408 0.535505
vt 0.445099 0.528411
vt 0.459830 0.745915
vt 0.459030 0.737799
vt 0.653948 0.737436
vt 0.654447 0.745729
vt 0.451548 0.737751
vt 0.453146 0.744788
vt 0.459237 0.535484
vt 0.653948 0.535665
vt 0.451654 0.535479
vt 0.459981 0.527274
vt 0.654447 0.527373
vt 0.453235 0.528385
vt 0.667698 0.535688
vt 0.667746 0.527274
vt 0.870018 0.527383
vt 0.870012 0.535900
vt 0.659581 0.535855
vt 0.660708 0.528567
vt 0.878222 0.536008
vt 0.877112 0.528656
vt 0.869842 0.736221
vt 0.668049 0.736221
vt 0.659762 0.736734
vt 0.878128 0.736734
vt 0.668056 0.744114
vt 0.869837 0.744115
vt 0.659766 0.744631
vt 0.878126 0.744631
vt 0.668056 0.751814
vt 0.869837 0.751814
vt 0.659766 0.752334
vt 0.878126 0.752334
vt 0.668049 0.759061
vt 0.869842 0.759061
vt 0.659762 0.759584
vt 0.878128 0.759584
vt 0.870012 0.934908
vt 0.667879 0.934908
vt 0.659669 0.935844
vt 0.878221 0.935844
vt 0.667814 0.943547
vt 0.870018 0.943552
vt 0.660747 0.942981
vt 0.877112 0.942982
vt 0.667746 0.951567
vt 0.870018 0.951592
vt 0.660708 0.950663
vt 0.877112 0.950678
vn 0.017241 -0.959055 -0.282696
vn -0.239560 -0.931337 -0.274268
vn -0.240057 -0.928708 -0.282619
vn 0.016822 -0.955396 -0.294847
vn -0.696059 -0.691995 -0.191428
vn -0.841521 -0.522230 -0.138273
vn -0.855506 -0.498443 -0.140226
vn -0.694813 -0.690301 -0.201792
vn -0.998756 -0.046693 0.017478
vn -0.999084 -0.042753 0.001937
vn -0.003822 -0.036931 0.999311
vn 0.007785 -0.326716 0.945090
vn 0.023515 -0.326081 0.945049
vn 0.017390 -0.036290 0.999190
vn 0.020070 -0.813554 0.581143
vn 0.020228 -0.813549 0.581145
vn 0.036903 -0.812882 0.581258
vn 0.036906 -0.812882 0.581258
vn 0.022836 -0.999724 0.005564
vn 0.038465 -0.958391 -0.282856
vn 0.038697 -0.999235 0.005637
vn -0.853791 -0.048103 0.518389
vn -0.885071 -0.040354 0.463703
vn -0.999407 -0.030979 0.015060
vn -0.713030 -0.049669 0.699372
vn -0.711784 -0.041017 0.701200
vn -0.261222 -0.039996 0.964450
vn -0.004812 -0.027755 0.999603
vn -0.261560 -0.034863 0.964558
vn 0.999873 0.014681 0.006218
vn 0.870377 -0.469695 -0.147752
vn 0.882844 -0.445058 -0.150032
vn 0.999783 0.018639 -0.009336
vn 0.735018 -0.648106 -0.199266
vn 0.733527 -0.646452 -0.209851
vn 0.293163 -0.915017 -0.277127
vn 0.038514 -0.954730 -0.294969
vn 0.293409 -0.912321 -0.285623
vn 0.273037 -0.023881 0.961707
vn 0.273181 -0.018630 0.961782
vn 0.017790 -0.027071 0.999475
vn 0.720552 -0.005772 0.693377
vn 0.860338 0.004365 0.509706
vn 0.890089 0.013987 0.455573
vn 0.718996 0.002661 0.695009
vn 0.999530 0.030409 0.003826
vn 0.010494 -0.532752 0.846206
vn -0.246194 -0.524177 0.815247
vn -0.246377 -0.528445 0.812431
vn 0.010013 -0.540523 0.841270
vn -0.701056 -0.391955 0.595728
vn -0.845927 -0.298074 0.442221
vn -0.877263 -0.275641 0.392978
vn -0.699555 -0.399623 0.592390
vn -0.999409 -0.024155 0.024446
vn -0.999267 -0.035786 0.013617
vn -0.038043 0.950921 0.307086
vn -0.029542 0.820167 0.571362
vn -0.013813 0.820737 0.571139
vn -0.016873 0.951568 0.306976
vn -0.013259 0.337801 0.941124
vn -0.013102 0.337809 0.941124
vn 0.003566 0.338565 0.940936
vn 0.003569 0.338565 0.940936
vn 0.005720 -0.266379 0.963852
vn 0.031763 -0.532135 0.846064
vn 0.021574 -0.265736 0.963804
vn -0.870702 0.462959 0.165974
vn -0.883944 0.442786 0.150276
vn -0.999781 -0.018706 0.009359
vn -0.736697 0.639467 0.219907
vn -0.735384 0.644259 0.210097
vn -0.293925 0.909479 0.294034
vn -0.038484 0.954731 0.294971
vn -0.294344 0.912028 0.285597
vn 0.999220 0.037234 0.013188
vn 0.867556 -0.245294 0.432640
vn 0.896900 -0.221150 0.382967
vn 0.999670 0.025601 0.002343
vn 0.730475 -0.347774 0.587757
vn 0.729394 -0.355733 0.584327
vn 0.287003 -0.507702 0.812322
vn 0.032654 -0.539827 0.841142
vn 0.287427 -0.512071 0.809425
vn 0.239858 0.926054 0.291363
vn 0.240108 0.928629 0.282836
vn -0.016831 0.955394 0.294856
vn 0.696384 0.685480 0.212527
vn 0.841827 0.516480 0.156765
vn 0.855527 0.498128 0.141216
vn 0.694811 0.689998 0.202831
vn 0.999085 0.042735 -0.001895
vn -0.999262 -0.033536 0.018740
vn -0.999513 -0.030699 0.005638
vn -0.999513 -0.030697 0.005637
vn -0.999199 -0.035717 0.018062
vn -0.999513 -0.030688 0.005637
vn -0.999513 -0.030695 0.005637
vn 0.005816 -0.381295 0.924435
vn 0.028009 -0.380601 0.924315
vn 0.000741 -0.206118 0.978527
vn 0.022935 -0.205448 0.978399
vn 0.999648 0.025662 0.006789
vn 0.999513 0.030699 -0.005636
vn 0.999513 0.030695 -0.005638
vn 0.999584 0.027878 0.007466
vn 0.999512 0.030721 -0.005636
vn 0.999513 0.030697 -0.005638
vn -0.951385 -0.259117 0.166508
vn -0.741472 -0.554531 0.377775
vn -0.510198 -0.785619 0.350003
vn -0.216831 -0.975978 -0.021262
vn -0.515886 -0.600016 0.611426
vn -0.234596 -0.302394 0.923863
vn 0.275510 -0.961107 -0.019161
vn 0.558950 -0.750918 0.351706
vn 0.775820 -0.506033 0.376874
vn 0.966684 -0.199951 0.159815
vn 0.554696 -0.563524 0.612170
vn 0.260078 -0.283329 0.923084
vn -0.960692 0.063167 0.270334
vn -0.763047 0.191645 0.617277
vn -0.534886 0.108379 0.837945
vn -0.232450 -0.292358 0.927628
vn -0.546258 0.410204 0.730298
vn -0.270583 0.799654 0.536039
vn 0.259694 -0.272666 0.926398
vn 0.534018 0.149185 0.832207
vn 0.754029 0.246127 0.608984
vn 0.957240 0.126005 0.260412
vn 0.524155 0.450634 0.722627
vn 0.224007 0.817831 0.530070
vn -0.871016 -0.207503 0.445279
vn -0.873385 -0.125803 0.470502
vn -0.710529 -0.162783 0.684580
vn -0.255706 -0.207941 0.944127
vn -0.250886 -0.373986 0.892855
vn -0.706884 -0.288994 0.645599
vn 0.283408 -0.357522 0.889864
vn 0.278621 -0.191562 0.941103
vn 0.726916 -0.118644 0.676400
vn 0.884733 -0.071796 0.460535
vn 0.887105 -0.153493 0.435297
vn 0.730579 -0.244823 0.637430
s 1
g OffSwitch
usemtl Plug2SG
f 3/77/1 2/78/2 70/79/3 69/80/4
s 2
f 2/9/5 1/1/6 71/4/7 70/10/8
f 1/1/6 9/2/9 72/3/10 71/4/7
s 3
f 6/105/11 5/106/12 16/107/13 15/108/14
s 2
f 5/86/15 4/81/16 17/85/17 16/91/18
s 1
f 4/81/19 3/77/1 18/84/20 17/85/21
s 2
f 9/2/9 8/5/22 40/11/23 39/7/24
f 8/5/22 7/14/25 41/17/26 40/11/23
s 3
f 7/109/27 6/105/11 42/114/28 41/115/29
s 2
f 12/39/30 11/40/31 74/41/32 73/42/33
f 11/40/31 10/45/34 75/46/35 74/41/32
s 1
f 10/88/36 18/84/20 76/83/37 75/89/38
s 3
f 15/108/14 14/111/39 52/116/40 51/113/41
s 2
f 14/50/42 13/43/43 53/49/44 52/56/45
f 13/43/43 12/39/30 54/48/46 53/49/44
s 3
f 21/130/47 20/131/48 46/127/49 45/125/50
s 2
f 20/33/51 19/30/52 47/26/53 46/29/54
f 19/30/52 27/27/55 48/23/56 47/26/53
s 9
f 24/94/57 23/97/58 34/101/59 33/99/60
s 2
f 23/137/61 22/133/62 35/134/63 34/138/64
s 3
f 22/133/65 21/130/47 36/129/66 35/134/67
s 2
f 27/27/55 26/31/68 62/32/69 61/28/70
f 26/31/68 25/35/71 63/36/72 62/32/69
s 9
f 25/93/73 24/94/57 64/95/74 63/96/75
s 2
f 30/66/76 29/67/77 58/63/78 57/61/79
f 29/67/77 28/72/80 59/68/81 58/63/78
s 3
f 28/132/82 36/129/66 60/126/83 59/128/84
s 9
f 33/99/60 32/102/85 66/103/86 65/100/87
s 2
f 32/73/88 31/69/89 67/70/90 66/74/91
f 31/69/89 30/66/76 68/65/92 67/70/90
f 39/7/24 38/15/93 82/16/94 81/8/95
f 38/15/93 37/19/96 83/20/97 82/16/94
f 37/19/96 48/23/56 84/24/98 83/20/97
s 3
f 45/125/50 44/121/99 49/122/100 60/126/83
f 44/121/99 43/117/101 50/118/102 49/122/100
f 43/117/101 42/114/28 51/113/41 50/118/102
s 2
f 57/61/79 56/57/103 78/58/104 77/62/105
f 56/57/103 55/53/106 79/54/107 78/58/104
f 55/53/106 54/48/46 80/47/108 79/54/107
s 3
f 6/105/11 15/108/14 51/113/41 42/114/28
s 9
f 24/94/57 33/99/60 65/100/87 64/95/74
s 1
f 3/77/1 69/80/4 76/83/37 18/84/20
s 2
f 12/39/30 73/42/33 80/47/108 54/48/46
f 72/3/10 9/2/9 39/7/24 81/8/95
f 57/61/79 77/62/105 68/65/92 30/66/76
s 3
f 45/125/50 60/126/83 36/129/66 21/130/47
s 2
f 84/24/98 48/23/56 27/27/55 61/28/70
f 8/5/22 9/2/9 1/1/6 85/6/109
f 85/6/110 1/1/6 2/9/5 86/12/111
s 1
f 2/78/2 3/77/1 4/81/19 86/82/112
s 2
f 86/82/111 4/81/16 5/86/15 87/87/113
s 3
f 5/106/12 6/105/11 7/109/27 87/110/114
s 2
f 87/13/113 7/14/25 8/5/22 85/6/110
f 85/6/110 86/12/111 87/13/113
s 1
f 17/85/21 18/84/20 10/88/36 88/90/115
s 2
f 88/52/116 10/45/34 11/40/31 89/44/117
f 11/40/31 12/39/30 13/43/43 89/44/118
f 89/44/117 13/43/43 14/50/42 90/51/119
s 3
f 14/111/39 15/108/14 16/107/13 90/112/120
s 2
f 90/92/119 16/91/18 17/85/17 88/90/116
f 88/52/116 89/44/117 90/51/119
f 26/31/68 27/27/55 19/30/52 91/34/121
f 91/34/122 19/30/52 20/33/51 92/37/123
s 3
f 20/131/48 21/130/47 22/133/65 92/135/124
s 2
f 92/135/123 22/133/62 23/137/61 93/139/125
s 9
f 23/97/58 24/94/57 25/93/73 93/98/126
s 2
f 93/38/125 25/35/71 26/31/68 91/34/122
f 91/34/122 92/37/123 93/38/125
s 3
f 35/134/67 36/129/66 28/132/82 94/136/127
s 2
f 94/76/128 28/72/80 29/67/77 95/71/129
f 29/67/77 30/66/76 31/69/89 95/71/130
f 95/71/129 31/69/89 32/73/88 96/75/131
s 9
f 32/102/85 33/99/60 34/101/59 96/104/132
s 2
f 96/140/131 34/138/64 35/134/63 94/136/128
f 94/76/128 95/71/129 96/75/131
f 47/26/53 48/23/56 37/19/96 97/22/133
f 97/22/133 37/19/96 38/15/93 98/18/134
f 38/15/93 39/7/24 40/11/23 98/18/134
f 98/18/134 40/11/23 41/17/26 99/21/135
s 3
f 41/115/29 42/114/28 43/117/101 99/119/136
f 99/119/136 43/117/101 44/121/99 100/123/137
f 44/121/99 45/125/50 46/127/49 100/123/137
s 2
f 100/25/138 46/29/54 47/26/53 97/22/133
f 97/22/133 98/18/134 99/21/135 100/25/138
s 3
f 59/128/84 60/126/83 49/122/100 101/124/139
f 101/124/139 49/122/100 50/118/102 102/120/140
f 50/118/102 51/113/41 52/116/40 102/120/140
s 2
f 102/60/141 52/56/45 53/49/44 103/55/142
f 53/49/44 54/48/46 55/53/106 103/55/142
f 103/55/142 55/53/106 56/57/103 104/59/143
f 56/57/103 57/61/79 58/63/78 104/59/143
f 104/59/143 58/63/78 59/68/81 101/64/144
f 101/64/144 102/60/141 103/55/142 104/59/143
