# This file uses centimeters as units for non-parametric coordinates.

mtllib BathRoomWall2.mtl
g default
v -861.941772 -0.834207 -417.045410
v -861.941772 600.920166 -417.045410
v -318.323792 -0.834207 -417.154053
v -318.323792 600.920166 -417.154053
vt 0.911370 0.044636
vt 0.911370 0.955364
vt 0.088630 0.955364
vt 0.088630 0.044636
vn 0.000200 0.000000 1.000000
vn 0.000200 0.000000 1.000000
vn 0.000200 0.000000 1.000000
vn 0.000200 0.000000 1.000000
s off
g BathWall2
usemtl lambert2SG
f 3/1/1 4/2/2 2/3/3 1/4/4
