# This file uses centimeters as units for non-parametric coordinates.

mtllib BathRoomWall4.mtl
g default
v -318.325562 600.920166 -417.151215
v -318.325562 -0.834207 -417.151215
v -318.325562 600.920166 -12.300782
v -318.325562 -0.834207 -12.300782
vt 0.805392 0.953924
vt 0.194608 0.953924
vt 0.194608 0.046076
vt 0.805392 0.046076
vn -1.000000 0.000000 0.000000
vn -1.000000 0.000000 0.000000
vn -1.000000 0.000000 0.000000
vn -1.000000 0.000000 0.000000
s off
g BathRoomWall4
usemtl lambert2SG
f 3/1/1 1/2/2 2/3/3 4/4/4
