# This file uses centimeters as units for non-parametric coordinates.

mtllib BathRoomBar1.mtl
g default
v -686.720398 418.518127 -2.704348
v -687.134155 417.705994 -2.704346
v -687.778687 417.061523 -2.704346
v -688.590820 416.647705 -2.704346
v -689.491089 416.505127 -2.704346
v -690.391357 416.647705 -2.704346
v -691.203491 417.061523 -2.704346
v -691.847961 417.705994 -2.704346
v -692.261780 418.518127 -2.704348
v -692.404358 419.418396 -2.704347
v -692.261780 420.318665 -2.704346
v -691.847961 421.130798 -2.704346
v -691.203491 421.775269 -2.704346
v -690.391357 422.189087 -2.704346
v -689.491089 422.331665 -2.704346
v -688.590820 422.189087 -2.704346
v -687.778687 421.775269 -2.704346
v -687.134155 421.130798 -2.704346
v -686.720398 420.318665 -2.704346
v -686.577820 419.418396 -2.704347
v -686.720398 418.518158 -442.642822
v -687.134155 417.706024 -442.642822
v -687.778687 417.061493 -442.642822
v -688.590820 416.647705 -442.642822
v -689.491089 416.505096 -442.642822
v -690.391357 416.647705 -442.642822
v -691.203491 417.061493 -442.642822
v -691.847961 417.706024 -442.642822
v -692.261780 418.518158 -442.642822
v -692.404358 419.418396 -442.642822
v -692.261780 420.318634 -442.642822
v -691.847961 421.130768 -442.642822
v -691.203491 421.775299 -442.642822
v -690.391357 422.189087 -442.642822
v -689.491089 422.331696 -442.642822
v -688.590820 422.189087 -442.642822
v -687.778687 421.775299 -442.642822
v -687.134155 421.130768 -442.642822
v -686.720398 420.318634 -442.642822
v -686.577820 419.418396 -442.642822
vt 0.023549 0.504940
vt 0.023438 0.503708
vt 0.976878 0.503700
vt 0.976988 0.504932
vt 0.023328 0.502476
vt 0.976767 0.502468
vt 0.023217 0.501244
vt 0.976656 0.501236
vt 0.023107 0.500012
vt 0.976546 0.500004
vt 0.022997 0.498780
vt 0.976435 0.498772
vt 0.022886 0.497548
vt 0.976325 0.497540
vt 0.022775 0.496316
vt 0.976215 0.496308
vt 0.022665 0.495084
vt 0.976104 0.495076
vt 0.022554 0.493852
vt 0.975994 0.493844
vt 0.022444 0.492620
vt 0.975883 0.492612
vt 0.022333 0.491388
vt 0.975773 0.491380
vt 0.022223 0.490156
vt 0.975662 0.490148
vt 0.022112 0.488924
vt 0.975552 0.488917
vt 0.022002 0.487692
vt 0.975441 0.487685
vt 0.024212 0.512331
vt 0.024102 0.511099
vt 0.977541 0.511092
vt 0.977652 0.512324
vt 0.023991 0.509867
vt 0.977430 0.509860
vt 0.023881 0.508635
vt 0.977320 0.508628
vt 0.023770 0.507403
vt 0.977209 0.507396
vt 0.023659 0.506172
vt 0.977099 0.506164
vn 0.951066 -0.308987 0.000000
vn 0.809014 -0.587789 0.000000
vn 0.809015 -0.587788 0.000000
vn 0.951066 -0.308987 0.000000
vn 0.809014 -0.587789 0.000000
vn 0.587776 -0.809024 0.000000
vn 0.587776 -0.809024 0.000000
vn 0.809015 -0.587788 0.000000
vn 0.587776 -0.809024 0.000000
vn 0.309022 -0.951055 0.000000
vn 0.309022 -0.951055 0.000000
vn 0.587776 -0.809024 0.000000
vn 0.309022 -0.951055 0.000000
vn 0.000000 -1.000000 0.000000
vn 0.000000 -1.000000 0.000000
vn 0.309022 -0.951055 0.000000
vn 0.000000 -1.000000 0.000000
vn -0.309022 -0.951055 0.000000
vn -0.309022 -0.951055 0.000000
vn 0.000000 -1.000000 0.000000
vn -0.309022 -0.951055 0.000000
vn -0.587794 -0.809010 0.000000
vn -0.587794 -0.809011 0.000000
vn -0.309022 -0.951055 0.000000
vn -0.587794 -0.809010 0.000000
vn -0.809014 -0.587789 0.000000
vn -0.809015 -0.587788 0.000000
vn -0.587794 -0.809011 0.000000
vn -0.809014 -0.587789 0.000000
vn -0.951055 -0.309022 0.000000
vn -0.951055 -0.309022 0.000000
vn -0.809015 -0.587788 0.000000
vn -0.951055 -0.309022 0.000000
vn -1.000000 0.000000 0.000000
vn -1.000000 0.000000 0.000000
vn -0.951055 -0.309022 0.000000
vn -1.000000 0.000000 0.000000
vn -0.951055 0.309022 -0.000000
vn -0.951055 0.309022 -0.000000
vn -1.000000 0.000000 0.000000
vn -0.951055 0.309022 -0.000000
vn -0.809015 0.587788 -0.000000
vn -0.809015 0.587788 -0.000000
vn -0.951055 0.309022 -0.000000
vn -0.809015 0.587788 -0.000000
vn -0.587794 0.809010 0.000000
vn -0.587794 0.809011 0.000000
vn -0.809015 0.587788 -0.000000
vn -0.587794 0.809010 0.000000
vn -0.309022 0.951055 0.000000
vn -0.309022 0.951055 0.000000
vn -0.587794 0.809011 0.000000
vn -0.309022 0.951055 0.000000
vn 0.000000 1.000000 0.000000
vn 0.000000 1.000000 0.000000
vn -0.309022 0.951055 0.000000
vn 0.000000 1.000000 0.000000
vn 0.309022 0.951055 0.000000
vn 0.309022 0.951055 0.000000
vn 0.000000 1.000000 0.000000
vn 0.309022 0.951055 0.000000
vn 0.587776 0.809024 0.000000
vn 0.587776 0.809024 0.000000
vn 0.309022 0.951055 0.000000
vn 0.587776 0.809024 0.000000
vn 0.809015 0.587788 0.000000
vn 0.809015 0.587788 0.000000
vn 0.587776 0.809024 0.000000
vn 0.809015 0.587788 0.000000
vn 0.951066 0.308987 0.000000
vn 0.951066 0.308987 0.000000
vn 0.809015 0.587788 0.000000
vn 0.951066 0.308987 0.000000
vn 1.000000 0.000000 0.000000
vn 1.000000 -0.000000 0.000000
vn 0.951066 0.308987 0.000000
vn 1.000000 0.000000 0.000000
vn 0.951066 -0.308987 0.000000
vn 0.951066 -0.308987 0.000000
vn 1.000000 -0.000000 0.000000
s off
g BathRoomBar1
usemtl lambert2SG
f 1/1/1 2/2/2 22/3/3 21/4/4
f 2/2/5 3/5/6 23/6/7 22/3/8
f 3/5/9 4/7/10 24/8/11 23/6/12
f 4/7/13 5/9/14 25/10/15 24/8/16
f 5/9/17 6/11/18 26/12/19 25/10/20
f 6/11/21 7/13/22 27/14/23 26/12/24
f 7/13/25 8/15/26 28/16/27 27/14/28
f 8/15/29 9/17/30 29/18/31 28/16/32
f 9/17/33 10/19/34 30/20/35 29/18/36
f 10/19/37 11/21/38 31/22/39 30/20/40
f 11/21/41 12/23/42 32/24/43 31/22/44
f 12/23/45 13/25/46 33/26/47 32/24/48
f 13/25/49 14/27/50 34/28/51 33/26/52
f 14/27/53 15/29/54 35/30/55 34/28/56
f 15/31/57 16/32/58 36/33/59 35/34/60
f 16/32/61 17/35/62 37/36/63 36/33/64
f 17/35/65 18/37/66 38/38/67 37/36/68
f 18/37/69 19/39/70 39/40/71 38/38/72
f 19/39/73 20/41/74 40/42/75 39/40/76
f 20/41/77 1/1/78 21/4/79 40/42/80
