# This file uses meters as units for non-parametric coordinates.

mtllib Cabinet.mtl
g default
v -309.375397 591.694458 -172.693329
v -65.997086 591.694458 -417.327362
v -309.375397 455.411926 -174.330582
v -308.619293 455.411926 -174.199066
v -306.793488 455.411926 -174.144455
v -308.520599 455.753815 -173.003281
v -309.375397 456.786621 -172.693329
v -161.190414 456.831024 -172.894928
v -162.194092 456.831604 -172.693314
v -162.292419 455.827667 -173.115936
v -162.552689 455.411926 -174.130249
v -161.588852 455.411926 -174.404709
v -160.718002 455.411926 -175.149429
v -160.437561 455.826904 -173.964615
v -160.343033 456.830292 -173.468430
v -66.194550 456.831451 -269.435791
v -66.757446 456.830780 -268.581879
v -67.246735 455.827148 -268.675507
v -68.416321 455.411926 -268.949005
v -67.701874 455.411926 -269.828522
v -67.440308 455.411926 -270.798065
v -66.421188 455.827850 -270.539337
v -65.997086 456.832092 -270.439819
v -65.997086 456.817078 -417.327362
v -66.269470 455.737335 -416.380219
v -67.419037 455.411926 -414.499573
v -67.373978 455.411926 -416.207733
v -67.253571 455.411926 -417.327362
v -295.880005 456.815948 -188.486740
v -294.891571 456.809753 -188.073669
v -295.273682 455.821014 -187.649109
v -296.176086 455.411926 -186.613052
v -297.279510 455.411926 -187.005112
v -297.736572 455.411926 -187.951904
v -296.726410 455.824127 -189.045746
v -296.289398 456.822296 -189.484039
v -165.401810 456.840820 -188.277222
v -164.547791 456.844055 -188.856277
v -164.396072 455.831085 -188.407166
v -164.064667 455.411926 -187.314484
v -164.884766 455.411926 -186.809113
v -165.980042 455.411926 -186.631821
v -166.276413 455.829285 -187.652969
v -166.410751 456.837494 -188.073654
v -307.947296 455.411926 -417.327362
v -308.957123 455.411926 -416.906708
v -309.375397 455.411926 -415.891174
v -295.878448 456.815155 -403.756012
v -296.289398 456.815399 -402.763611
v -296.717010 455.822693 -403.173340
v -297.734863 455.411926 -404.171173
v -297.310272 455.411926 -405.200775
v -296.285278 455.411926 -405.627167
v -295.292786 455.822510 -404.599670
v -294.886353 456.814972 -404.167084
v -81.718170 456.815857 -403.757599
v -82.715088 456.821777 -404.167084
v -82.280792 455.823822 -404.600983
v -81.192810 455.411926 -405.598694
v -80.232559 455.411926 -405.147949
v -79.834991 455.411926 -404.060059
v -80.879059 455.821045 -403.154419
v -81.305237 456.810059 -402.768951
v -81.504547 456.841003 -273.538269
v -81.305237 456.837830 -274.547394
v -80.884735 455.829437 -274.416809
v -79.863892 455.411926 -274.126709
v -80.037506 455.411926 -273.030426
v -80.533325 455.411926 -272.204773
v -81.624298 455.831085 -272.528961
v -82.072723 456.844055 -272.677887
v -295.869934 465.193329 -189.506821
v -294.857269 465.612793 -189.505798
v -294.855896 465.193329 -188.493134
v -294.857269 464.180664 -188.073669
v -295.869934 464.180756 -188.493134
v -296.289398 464.180664 -189.505798
v -164.911530 465.207031 -189.158737
v -164.537018 464.160675 -188.867218
v -165.408295 464.150604 -188.280045
v -166.446472 464.140656 -188.073654
v -166.386108 465.200073 -188.544250
v -165.891205 465.612793 -189.442184
v -294.856110 465.193329 -403.747620
v -294.857269 465.612793 -402.734955
v -295.869934 465.193329 -402.733795
v -296.289398 464.180664 -402.734955
v -295.869934 464.180664 -403.747620
v -294.857269 464.180664 -404.167084
v -81.724701 465.193329 -402.733582
v -82.737366 465.612793 -402.734955
v -82.738403 465.193329 -403.747620
v -82.737366 464.180664 -404.167084
v -81.724701 464.180725 -403.747620
v -81.305237 464.180664 -402.734955
v -82.382553 465.207947 -273.039307
v -82.673065 465.612793 -274.017975
v -81.779663 465.207977 -274.512146
v -81.305237 464.160461 -274.567596
v -81.507355 464.160431 -273.540649
v -82.083557 464.160461 -272.666870
v -162.203629 591.694458 -172.693314
v -161.190964 591.694458 -172.896881
v -160.335632 591.694458 -173.475937
v -66.764557 591.694458 -268.574677
v -66.196381 591.694458 -269.436279
v -65.997086 591.694458 -270.448944
v -161.313431 455.827515 -173.337067
v -66.635956 455.827667 -269.556671
v -296.299805 455.822662 -188.058990
v -165.233948 455.829834 -187.851578
v -296.298859 455.822693 -404.181030
v -81.290924 455.822479 -404.176727
v -81.079193 455.829895 -273.373169
v -295.683289 465.007263 -188.679535
v -165.524338 465.014709 -188.557098
v -295.683380 465.007233 -403.561066
v -81.911102 465.007233 -403.560974
v -81.787903 465.020477 -273.655487
vt 0.531111 0.335862
vt 0.531112 0.333875
vt 0.798062 0.333857
vt 0.798062 0.335861
vt 0.529124 0.333678
vt 0.529124 0.335623
vt 0.531082 0.043122
vt 0.798062 0.043122
vt 0.531110 0.337553
vt 0.798062 0.337567
vt 0.528945 0.044997
vt 0.529123 0.337367
vt 0.531109 0.525823
vt 0.798062 0.525808
vt 0.529122 0.524841
vt 0.531110 0.526958
vt 0.798062 0.526954
vt 0.529124 0.526083
vt 0.863366 0.470073
vt 0.863379 0.468099
vt 0.877944 0.468056
vt 0.877944 0.470060
vt 0.861403 0.468966
vt 0.861400 0.470919
vt 0.863365 0.045928
vt 0.877944 0.045984
vt 0.879949 0.468054
vt 0.879580 0.469691
vt 0.861400 0.045117
vt 0.863365 0.043963
vt 0.877944 0.043980
vt 0.879949 0.045987
vt 0.861400 0.043122
vt 0.879580 0.044349
vt 0.917415 0.470492
vt 0.917403 0.468535
vt 0.931993 0.468468
vt 0.931993 0.470472
vt 0.915446 0.469298
vt 0.915449 0.471321
vt 0.917458 0.214730
vt 0.931953 0.214770
vt 0.933998 0.468465
vt 0.933629 0.470103
vt 0.915462 0.214471
vt 0.917465 0.212732
vt 0.931953 0.212737
vt 0.934027 0.214660
vt 0.915463 0.212406
vt 0.917471 0.211029
vt 0.931953 0.211008
vt 0.933655 0.212964
vt 0.915466 0.210735
vt 0.917471 0.045111
vt 0.931953 0.045132
vt 0.934027 0.211745
vt 0.915466 0.044222
vt 0.917464 0.043964
vt 0.931934 0.043970
vt 0.934025 0.045709
vt 0.915463 0.043122
vt 0.933644 0.044518
vt 0.029279 0.529217
vt 0.025665 0.529109
vt 0.048111 0.503760
vt 0.050295 0.504536
vt 0.024168 0.528848
vt 0.025860 0.531475
vt 0.024168 0.532089
vt 0.047206 0.501886
vt 0.052082 0.502485
vt 0.050050 0.501674
vt 0.314793 0.529245
vt 0.308009 0.504499
vt 0.315308 0.531253
vt 0.024168 0.050697
vt 0.047210 0.073896
vt 0.049206 0.499721
vt 0.307422 0.502478
vt 0.316701 0.528701
vt 0.310177 0.504148
vt 0.317246 0.530815
vt 0.024996 0.048687
vt 0.048050 0.071858
vt 0.049225 0.075871
vt 0.309486 0.502084
vt 0.318424 0.527227
vt 0.311800 0.503148
vt 0.318980 0.529573
vt 0.026995 0.047854
vt 0.050079 0.071014
vt 0.050052 0.073876
vt 0.311144 0.500985
vt 0.501129 0.341558
vt 0.477144 0.335114
vt 0.503444 0.342099
vt 0.503430 0.047854
vt 0.475839 0.071070
vt 0.052044 0.073048
vt 0.474985 0.334472
vt 0.502543 0.339817
vt 0.478126 0.333479
vt 0.504653 0.340355
vt 0.503192 0.050070
vt 0.477739 0.071962
vt 0.473685 0.073045
vt 0.476064 0.332801
vt 0.503061 0.337898
vt 0.478469 0.331309
vt 0.505078 0.338410
vt 0.505917 0.047854
vt 0.505378 0.049729
vt 0.503103 0.053452
vt 0.478526 0.074116
vt 0.475644 0.073885
vt 0.476449 0.330735
vt 0.476460 0.075908
vt 0.550979 0.981689
vt 0.548975 0.981687
vt 0.548975 0.559620
vt 0.550979 0.559618
vt 0.550982 0.983694
vt 0.549344 0.983325
vt 0.550982 0.557613
vt 0.549344 0.557983
vt 0.806258 0.981815
vt 0.970855 0.559618
vt 0.970982 0.814404
vt 0.805278 0.983592
vt 0.970853 0.557613
vt 0.972859 0.559621
vt 0.972751 0.813425
vt 0.808197 0.982376
vt 0.971557 0.816341
vt 0.806984 0.983567
vt 0.972490 0.557983
vt 0.972734 0.815121
vt 0.195910 0.904566
vt 0.193866 0.902874
vt 0.194012 0.613426
vt 0.195999 0.613231
vt 0.195998 0.611245
vt 0.194012 0.611488
vt 0.462950 0.613250
vt 0.462950 0.904566
vt 0.462950 0.611246
vt 0.136143 0.894708
vt 0.136131 0.896664
vt 0.121553 0.896644
vt 0.121553 0.894640
vt 0.138100 0.895464
vt 0.138097 0.897495
vt 0.119549 0.894637
vt 0.119917 0.896275
vt 0.136088 0.640390
vt 0.121632 0.640460
vt 0.138084 0.640124
vt 0.119535 0.640341
vt 0.136082 0.638393
vt 0.121613 0.638406
vt 0.138083 0.638060
vt 0.119902 0.638635
vt 0.501752 0.980796
vt 0.501752 0.978832
vt 0.516332 0.978775
vt 0.516332 0.980779
vt 0.499788 0.979637
vt 0.499788 0.981628
vt 0.501765 0.558855
vt 0.516332 0.558899
vt 0.518336 0.978772
vt 0.517968 0.980410
vt 0.499790 0.557995
vt 0.501754 0.556882
vt 0.516332 0.556895
vt 0.518336 0.558901
vt 0.499787 0.556036
vt 0.517968 0.557264
vn -0.000141 -0.997362 0.072584
vn -0.035992 -0.997796 0.055738
vn 0.009317 -0.999905 -0.010195
vn 0.000078 -0.999928 -0.011984
vn -0.000503 -1.000000 0.000779
vn 0.010513 -0.999945 -0.000052
vn 0.000002 -0.001545 0.999999
vn 0.000498 -0.338290 0.941042
vn 0.001748 -0.338783 0.940863
vn 0.001372 -0.002537 0.999996
vn -0.014881 -0.941480 0.336740
vn 0.000106 -0.999225 0.039354
vn 0.001084 -0.943283 0.331987
vn 0.386465 -0.003174 0.922299
vn 0.386333 0.000015 0.922359
vn 0.001367 0.000000 0.999999
vn 0.711747 -0.002558 0.702431
vn 0.711751 0.000000 0.702432
vn 0.047185 -0.997804 0.046482
vn 0.018353 -0.999252 0.034052
vn -0.008392 -0.999711 -0.022527
vn -0.013099 -0.999830 -0.012969
vn -0.000040 -0.999776 -0.021166
vn 0.657967 -0.382271 0.648805
vn 0.659378 -0.382264 0.647376
vn 0.713843 -0.002576 0.700302
vn 0.266195 -0.927354 0.262972
vn 0.046635 -0.997860 0.045833
vn 0.267236 -0.927352 0.261922
vn 0.925403 -0.003171 0.378970
vn 0.925458 0.000014 0.378851
vn 0.713843 0.000000 0.700305
vn 0.999996 -0.002411 0.001347
vn 0.999999 0.000000 0.001341
vn 0.038462 -0.999260 0.000119
vn 0.034303 -0.999255 0.017662
vn -0.022863 -0.999704 -0.008307
vn -0.021436 -0.999770 -0.000040
vn -0.013348 -0.999826 -0.013059
vn 0.948297 -0.317380 0.001805
vn 0.948507 -0.316755 0.000606
vn 0.999999 -0.001412 0.000003
vn 0.324019 -0.946050 0.001192
vn 0.071756 -0.997422 -0.000020
vn 0.332298 -0.943113 -0.010727
vn 0.000982 -1.000000 -0.000404
vn 0.057859 -0.998045 -0.023641
vn -0.010222 -0.999903 0.009439
vn -0.000053 -0.999946 0.010368
vn -0.012108 -0.999927 0.000078
vn 0.003106 -0.060365 -0.998172
vn 0.382066 -0.073335 -0.921221
vn 0.380178 -0.033657 -0.924301
vn 0.003037 -0.052789 -0.998601
vn 0.921331 -0.075768 -0.381324
vn 0.998037 -0.062607 -0.001856
vn 0.998755 -0.049848 -0.001848
vn 0.925373 -0.033437 -0.377580
vn 0.000625 -0.928136 -0.372242
vn -0.000440 -0.927962 -0.372674
vn 0.004118 -0.391250 -0.920275
vn -0.001553 -0.054304 -0.998523
vn -0.001564 -0.389972 -0.920826
vn 0.916817 -0.399300 -0.002634
vn 0.916853 -0.399217 0.002590
vn 0.998068 -0.062096 0.001868
vn 0.375684 -0.926748 -0.000370
vn 0.011487 -0.999934 0.000052
vn 0.375690 -0.926745 0.000395
vn -0.710488 -0.056270 -0.701456
vn -0.384067 -0.057437 -0.921517
vn -0.385580 -0.041757 -0.921729
vn -0.710476 -0.057747 -0.701348
vn -0.001522 -0.054326 -0.998522
vn -0.274210 -0.922853 -0.270464
vn -0.274844 -0.922853 -0.269823
vn -0.656174 -0.386124 -0.648339
vn -0.712846 -0.056139 -0.699070
vn -0.658871 -0.386114 -0.645604
vn 0.000000 -1.000000 -0.000000
vn 0.000000 -1.000000 0.000000
vn 0.010129 -0.999897 0.010139
vn 0.000000 -1.000000 -0.000003
vn 0.000051 -0.999934 0.011506
vn 0.921327 -0.074319 0.381619
vn 0.924854 -0.033578 0.378838
vn 0.998757 -0.049820 0.001850
vn 0.381750 -0.074467 0.921261
vn 0.001876 -0.062145 0.998065
vn 0.001859 -0.049813 0.998757
vn 0.378922 -0.033588 0.924819
vn 0.002572 -0.400042 0.916493
vn -0.002650 -0.400093 0.916471
vn -0.001868 -0.062668 0.998033
vn 0.000368 -0.926640 0.375949
vn -0.000400 -0.926634 0.375965
vn -0.381191 -0.075408 0.921416
vn -0.377635 -0.033447 0.925350
vn -0.001857 -0.049841 0.998756
vn -0.921174 -0.073441 0.382158
vn -0.998166 -0.060461 0.003107
vn -0.998591 -0.052986 0.003045
vn -0.924341 -0.033650 0.380080
vn -0.920064 -0.391746 0.004139
vn -0.920627 -0.390440 -0.001534
vn -0.998531 -0.054173 -0.001522
vn -0.371114 -0.928587 0.000616
vn -0.371568 -0.928406 -0.000449
vn -0.924207 -0.057153 -0.377590
vn -0.924481 -0.041823 -0.378926
vn -0.998513 -0.054502 -0.001489
vn -0.712735 -0.057765 -0.699050
vn 0.002131 -0.999997 -0.001278
vn 0.382556 -0.923932 -0.001210
vn 0.382557 -0.923931 0.001210
vn 0.002127 -0.999996 0.002116
vn 0.923927 -0.382567 -0.001210
vn 0.923927 -0.382567 0.001210
vn 0.001714 -0.394389 -0.918942
vn -0.001129 -0.394489 -0.918900
vn 0.002146 -0.916964 -0.398965
vn -0.000390 -1.000000 -0.000992
vn -0.000742 -0.916647 -0.399696
vn -0.649023 -0.411360 -0.639962
vn -0.650372 -0.411378 -0.638579
vn -0.293577 -0.910820 -0.290204
vn -0.000980 -1.000000 -0.000378
vn -0.294871 -0.910823 -0.288880
vn 0.001216 -0.923933 0.382553
vn -0.001217 -0.923933 0.382553
vn -0.001263 -0.999997 0.002120
vn 0.001216 -0.382554 0.923933
vn -0.001217 -0.382554 0.923933
vn -0.396590 -0.917993 0.002180
vn -0.397305 -0.917686 -0.000715
vn -0.917501 -0.397729 0.001755
vn -0.917442 -0.397868 -0.001082
vn -0.000000 -0.000000 1.000000
vn 1.000000 0.000000 0.000000
vn -0.260714 -0.876908 0.403809
vn 0.456904 -0.869693 -0.186741
vn 0.371497 -0.413351 0.831343
vn 0.152939 -0.934440 0.321608
vn 0.835651 -0.412396 0.362791
vn 0.324227 -0.934290 0.148251
vn 0.801360 -0.492435 -0.339603
vn 0.329632 -0.482347 -0.811594
vn 0.185082 -0.961579 -0.202756
vn -0.344838 -0.412152 -0.843337
vn -0.127838 -0.934630 -0.331850
vn 0.334689 -0.487778 0.806260
vn 0.807463 -0.485716 0.334788
vn 0.194948 -0.961426 0.194051
vn -0.810630 -0.483214 0.330731
vn -0.338727 -0.490510 0.802910
vn -0.200920 -0.961485 0.187557
vn -0.846460 -0.411166 -0.338302
vn -0.333620 -0.934325 -0.125436
vn 0.887732 -0.325694 -0.325354
vn 0.325307 -0.887842 -0.325440
vn 0.325240 -0.325709 -0.887768
vn -0.200270 -0.848309 -0.490168
vn -0.353669 -0.372926 -0.857814
vn 0.325318 -0.325706 0.887741
vn 0.325402 -0.887818 0.325410
vn 0.887740 -0.325671 0.325355
vn -0.887763 -0.325705 0.325259
vn -0.325449 -0.887829 0.325336
vn -0.325333 -0.325710 0.887734
vn -0.857035 -0.377330 -0.350875
vn -0.487239 -0.850186 -0.199453
s 1
g Cabinet
usemtl blinn35SG
f 5/63/1 4/64/2 33/65/3 32/66/4
f 4/64/2 3/67/5 34/70/6 33/65/3
s 2
f 7/138/7 6/139/8 10/140/9 9/141/10
s 1
f 6/68/11 5/63/1 11/73/12 10/75/13
s 2
f 9/141/10 8/142/14 103/146/15 102/144/16
f 8/16/14 15/13/17 104/14/18 103/17/15
s 1
f 13/87/19 12/80/20 41/81/21 40/88/22
f 12/80/20 11/73/12 42/74/23 41/81/21
s 2
f 15/13/17 14/15/24 18/12/25 17/9/26
s 1
f 14/89/27 13/87/19 19/94/28 18/96/29
s 2
f 17/9/26 16/1/30 106/4/31 105/10/32
f 16/1/30 23/2/33 107/3/34 106/4/31
s 1
f 21/108/35 20/101/36 68/102/37 67/109/38
f 20/101/36 19/94/28 69/95/39 68/102/37
s 2
f 23/2/33 22/5/40 25/11/41 24/7/42
s 1
f 22/110/43 21/108/35 26/113/44 25/112/45
f 28/97/46 27/104/47 60/105/48 59/98/49
f 27/104/47 26/113/44 61/114/50 60/105/48
s 5
f 30/147/51 29/148/52 76/149/53 75/150/54
s 6
f 29/19/55 36/20/56 77/21/57 76/22/58
s 1
f 32/66/4 31/71/59 43/79/60 42/74/23
s 5
f 31/151/61 30/147/51 44/155/62 43/157/63
s 6
f 36/20/56 35/23/64 50/29/65 49/25/66
s 1
f 35/78/67 34/70/6 51/77/68 50/85/69
s 5
f 38/54/70 37/58/71 80/59/72 79/55/73
f 37/159/71 44/155/62 81/156/74 80/160/72
s 1
f 40/88/22 39/93/75 70/100/76 69/95/39
s 5
f 39/57/77 38/54/70 71/50/78 70/53/79
s 1
f 47/76/80 46/83/81 52/84/82 51/77/68
f 46/83/81 45/90/83 53/91/84 52/84/82
s 6
f 49/25/66 48/30/85 88/31/86 87/26/87
s 9
f 48/163/88 55/164/89 89/165/90 88/166/91
f 55/164/89 54/167/92 58/173/93 57/169/94
s 1
f 54/99/95 53/91/84 59/98/49 58/106/96
s 9
f 57/169/94 56/174/97 94/175/98 93/170/99
s 5
f 56/35/100 63/36/101 95/37/102 94/38/103
f 63/36/101 62/39/104 66/45/105 65/41/106
s 1
f 62/117/107 61/114/50 67/109/38 66/116/108
s 5
f 65/41/106 64/46/109 100/47/110 99/42/111
f 64/46/109 71/50/78 101/51/112 100/47/110
s 11
f 73/118/113 72/119/114 86/120/115 85/121/116
s 6
f 72/27/117 77/21/57 87/26/87 86/32/118
s 5
f 75/150/54 74/153/119 82/158/120 81/156/74
s 11
f 74/122/121 73/118/113 83/126/122 82/129/123
s 5
f 79/55/73 78/60/124 96/56/125 101/51/112
s 11
f 78/133/126 83/126/122 97/128/127 96/134/128
f 85/121/116 84/124/129 92/130/130 91/127/131
s 9
f 84/171/132 89/165/90 93/170/99 92/176/133
s 11
f 91/127/131 90/131/134 98/132/135 97/128/127
s 5
f 90/43/136 95/37/102 99/42/111 98/48/137
s 11
f 83/126/122 73/118/113 85/121/116 91/127/131 97/128/127
s 1
f 11/73/12 5/63/1 32/66/4 42/74/23
f 34/70/6 3/67/5 47/76/80 51/77/68
f 53/91/84 45/90/83 28/97/46 59/98/49
f 61/114/50 26/113/44 21/108/35 67/109/38
f 19/94/28 13/87/19 40/88/22 69/95/39
s 5
f 44/155/62 30/147/51 75/150/54 81/156/74
s 6
f 36/20/56 49/25/66 87/26/87 77/21/57
s 9
f 55/164/89 57/169/94 93/170/99 89/165/90
s 5
f 63/36/101 65/41/106 99/42/111 95/37/102
f 71/50/78 38/54/70 79/55/73 101/51/112
s 2
f 7/138/7 9/141/10 102/144/16 1/145/138
f 23/2/33 24/7/42 2/8/139 107/3/34
f 15/13/17 17/9/26 105/10/32 104/14/18
s 1
f 3/67/5 4/64/2 5/63/1 6/68/11 7/69/140
f 24/111/141 25/112/45 26/113/44 27/104/47 28/97/46
s 2
f 14/15/24 15/13/17 8/16/14 108/18/142
f 8/142/14 9/141/10 10/140/9 108/143/142
s 1
f 10/75/13 11/73/12 12/80/20 108/82/143
f 12/80/20 13/87/19 14/89/27 108/82/143
s 2
f 22/5/40 23/2/33 16/1/30 109/6/144
f 16/1/30 17/9/26 18/12/25 109/6/144
s 1
f 18/96/29 19/94/28 20/101/36 109/103/145
f 20/101/36 21/108/35 22/110/43 109/103/145
s 6
f 35/23/64 36/20/56 29/19/55 110/24/146
s 5
f 29/148/52 30/147/51 31/151/61 110/152/147
s 1
f 31/71/59 32/66/4 33/65/3 110/72/148
f 33/65/3 34/70/6 35/78/67 110/72/148
s 5
f 43/157/63 44/155/62 37/159/71 111/161/149
f 37/58/71 38/54/70 39/57/77 111/61/149
s 1
f 39/93/75 40/88/22 41/81/21 111/86/150
f 41/81/21 42/74/23 43/79/60 111/86/150
s 9
f 54/167/92 55/164/89 48/163/88 112/168/151
s 6
f 48/30/85 49/25/66 50/29/65 112/33/152
s 1
f 50/85/69 51/77/68 52/84/82 112/92/153
f 52/84/82 53/91/84 54/99/95 112/92/153
s 5
f 62/39/104 63/36/101 56/35/100 113/40/154
s 9
f 56/174/97 57/169/94 58/173/93 113/177/155
s 1
f 58/106/96 59/98/49 60/105/48 113/115/156
f 60/105/48 61/114/50 62/117/107 113/115/156
s 5
f 70/53/79 71/50/78 64/46/109 114/49/157
f 64/46/109 65/41/106 66/45/105 114/49/157
s 1
f 66/116/108 67/109/38 68/102/37 114/107/158
f 68/102/37 69/95/39 70/100/76 114/107/158
s 6
f 76/22/58 77/21/57 72/27/117 115/28/159
s 11
f 72/119/114 73/118/113 74/122/121 115/123/160
s 5
f 74/153/119 75/150/54 76/149/53 115/154/161
s 11
f 82/129/123 83/126/122 78/133/126 116/135/162
s 5
f 78/60/124 79/55/73 80/59/72 116/62/163
f 80/160/72 81/156/74 82/158/120 116/162/163
s 9
f 88/166/91 89/165/90 84/171/132 117/172/164
s 11
f 84/124/129 85/121/116 86/120/115 117/125/165
s 6
f 86/32/118 87/26/87 88/31/86 117/34/166
s 5
f 94/38/103 95/37/102 90/43/136 118/44/167
s 11
f 90/131/134 91/127/131 92/130/130 118/136/168
s 9
f 92/176/133 93/170/99 94/175/98 118/178/169
s 5
f 100/47/110 101/51/112 96/56/125 119/52/170
s 11
f 96/134/128 97/128/127 98/132/135 119/137/171
s 5
f 98/48/137 99/42/111 100/47/110 119/52/170
