# This file uses centimeters as units for non-parametric coordinates.

mtllib CCPDRecordBookClose.mtl
g default
v 1.422985 0.000000 2.102855
v 1.422985 0.000000 -2.102855
v 1.422985 0.062391 2.102855
v 1.422985 0.062391 -2.102855
v -1.422985 0.026470 2.102855
v -1.419438 0.013235 2.102855
v -1.409750 0.003546 2.102855
v -1.396515 0.000000 2.102855
v -1.422985 0.026470 -2.102855
v -1.396515 0.000000 -2.102855
v -1.409750 0.003546 -2.102855
v -1.419438 0.013235 -2.102855
v -1.409750 0.058844 2.102855
v -1.419438 0.049156 2.102855
v -1.422985 0.035921 2.102855
v -1.396515 0.062391 2.102855
v -1.419438 0.049156 -2.102855
v -1.409750 0.058844 -2.102855
v -1.396515 0.062391 -2.102855
v -1.422985 0.035921 -2.102855
vt 0.031392 0.701811
vt 0.031392 0.026720
vt 0.483971 0.026720
vt 0.483971 0.701811
vt 0.509608 0.701811
vt 0.509608 0.026720
vt 0.975976 0.026720
vt 0.975976 0.701811
vt 0.030642 0.868757
vt 0.703043 0.868757
vt 0.703043 0.883498
vt 0.030642 0.883498
vt 0.033768 0.833479
vt 0.031479 0.831190
vt 0.030642 0.828063
vt 0.030642 0.825830
vt 0.031479 0.822703
vt 0.033768 0.820414
vt 0.036895 0.819576
vt 0.484232 0.819576
vt 0.484232 0.834316
vt 0.036895 0.834316
vt 0.038060 0.916402
vt 0.040349 0.914113
vt 0.043477 0.913275
vt 0.490813 0.913275
vt 0.490813 0.928016
vt 0.043477 0.928016
vt 0.040349 0.927178
vt 0.038060 0.924888
vt 0.037222 0.921762
vt 0.037222 0.919529
vt 0.033173 0.760505
vt 0.703190 0.760001
vt 0.703192 0.762226
vt 0.033174 0.762730
vt 0.703187 0.756775
vt 0.033170 0.757280
vt 0.703194 0.765452
vt 0.033177 0.765956
vt 0.703185 0.753549
vt 0.033168 0.754054
vt 0.703196 0.768677
vt 0.033179 0.769182
vt 0.703183 0.750323
vt 0.033165 0.750828
vt 0.703199 0.771903
vt 0.033182 0.772408
vn -0.001252 0.999999 0.000000
vn -0.001252 0.999999 0.000000
vn 0.000000 1.000000 0.000000
vn 0.000000 1.000000 0.000000
vn -0.001252 -0.999999 0.000000
vn -0.001252 -0.999999 0.000000
vn 0.000000 -1.000000 0.000000
vn 0.000000 -1.000000 0.000000
vn 1.000000 0.000000 0.000000
vn 1.000000 0.000000 0.000000
vn 1.000000 0.000000 0.000000
vn 1.000000 0.000000 0.000000
vn -0.988001 -0.154448 0.000000
vn -0.988001 -0.154448 0.000000
vn -0.988001 0.154448 0.000000
vn -0.988001 0.154448 0.000000
vn -0.500001 -0.866025 0.000000
vn -0.500001 -0.866025 0.000000
vn -0.707104 -0.707110 0.000000
vn -0.707104 -0.707110 0.000000
vn -0.965924 -0.258826 0.000000
vn -0.965924 -0.258826 0.000000
vn -0.965924 0.258826 0.000000
vn -0.965924 0.258826 0.000000
vn -0.707104 0.707110 -0.000000
vn -0.500001 0.866025 -0.000000
vn -0.500001 0.866025 -0.000000
vn -0.707104 0.707110 -0.000000
vn -0.000000 0.000000 1.000000
vn -0.000000 0.000000 1.000000
vn -0.000000 0.000000 1.000000
vn -0.000000 0.000000 1.000000
vn -0.000000 0.000000 1.000000
vn -0.000000 0.000000 1.000000
vn -0.000000 0.000000 1.000000
vn -0.000000 0.000000 1.000000
vn -0.000000 0.000000 1.000000
vn -0.000000 0.000000 1.000000
vn 0.000000 0.000000 -1.000000
vn 0.000000 0.000000 -1.000000
vn 0.000000 0.000000 -1.000000
vn 0.000000 0.000000 -1.000000
vn 0.000000 0.000000 -1.000000
vn 0.000000 0.000000 -1.000000
vn 0.000000 0.000000 -1.000000
vn 0.000000 0.000000 -1.000000
vn 0.000000 0.000000 -1.000000
vn 0.000000 0.000000 -1.000000
s 1
g pPlane1
usemtl lambert2SG
f 19/1/1 16/2/2 3/3/3 4/4/4
s 2
f 8/5/5 10/6/6 2/7/7 1/8/8
s off
f 1/9/9 2/10/10 4/11/11 3/12/12
s 3
f 9/33/13 5/34/14 15/35/15 20/36/16
s 2
f 8/45/5 7/41/17 11/42/18 10/46/6
f 7/41/17 6/37/19 12/38/20 11/42/18
s 3
f 6/37/21 5/34/14 9/33/13 12/38/22
f 15/35/15 14/39/23 17/40/24 20/36/16
s 1
f 14/39/25 13/43/26 18/44/27 17/40/28
f 13/43/26 16/47/2 19/48/1 18/44/27
s off
f 13/13/29 14/14/30 15/15/31 5/16/32 6/17/33 7/18/34 8/19/35 1/20/36 3/21/37 16/22/38
f 17/23/39 18/24/40 19/25/41 4/26/42 2/27/43 10/28/44 11/29/45 12/30/46 9/31/47 20/32/48
