# This file uses meters as units for non-parametric coordinates.

mtllib Pillow.mtl
g default
v 417.901825 85.910378 294.920898
v 421.494812 84.422096 294.920898
v 421.494812 85.910378 298.513855
v 421.494812 89.503372 300.002197
v 417.901825 89.503372 298.513855
v 416.413544 89.503372 294.920898
v 593.040771 85.910378 294.920898
v 594.529053 89.503372 294.920898
v 593.040771 89.503372 298.513855
v 589.447754 89.503372 300.002197
v 589.447754 85.910378 298.513855
v 589.447754 84.422096 294.920898
v 417.901825 105.590034 294.920898
v 416.413544 101.997032 294.920898
v 417.901825 101.997032 298.513855
v 421.494812 101.997032 300.002197
v 421.494812 105.590034 298.513855
v 421.494812 107.078308 294.920898
v 593.040771 105.590034 294.920898
v 589.447754 107.078308 294.920898
v 589.447754 105.590034 298.513855
v 589.447754 101.997032 300.002197
v 593.040771 101.997032 298.513855
v 594.529053 101.997032 294.920898
v 417.901825 101.997032 217.013702
v 416.413544 101.997032 220.606720
v 417.901825 105.590034 220.606720
v 421.494812 107.078308 220.606720
v 421.494812 105.590034 217.013702
v 421.494812 101.997032 215.525452
v 593.040771 101.997032 217.013702
v 589.447754 101.997032 215.525452
v 589.447754 105.590034 217.013702
v 589.447754 107.078308 220.606720
v 593.040771 105.590034 220.606720
v 594.529053 101.997032 220.606720
v 417.901825 85.910378 220.606720
v 416.413544 89.503372 220.606720
v 417.901825 89.503372 217.013702
v 421.494812 89.503372 215.525452
v 421.494812 85.910378 217.013702
v 421.494812 84.422096 220.606720
v 593.040771 85.910378 220.606720
v 589.447754 84.422096 220.606720
v 589.447754 85.910378 217.013702
v 589.447754 89.503372 215.525452
v 593.040771 89.503372 217.013702
v 594.529053 89.503372 220.606720
v 418.562164 86.570740 297.853577
v 592.380554 86.570740 297.853577
v 418.562164 104.929672 297.853577
v 592.380554 104.929672 297.853577
v 418.562164 104.929672 217.674057
v 592.380554 104.929672 217.674057
v 418.562164 86.570740 217.674057
v 592.380554 86.570740 217.674057
vt 0.879637 0.096494
vt 0.894146 0.096494
vt 0.894146 0.396585
vt 0.879637 0.396585
vt 0.894146 0.081985
vt 0.882304 0.084651
vt 0.944598 0.096494
vt 0.944598 0.396585
vt 0.894146 0.411095
vt 0.882304 0.408428
vt 0.944598 0.081985
vt 0.959107 0.096494
vt 0.959107 0.396585
vt 0.944598 0.411095
vt 0.956440 0.084651
vt 0.956440 0.408428
vt 0.891518 0.754222
vt 0.877009 0.754222
vt 0.877009 0.454131
vt 0.891518 0.454131
vt 0.891518 0.768731
vt 0.879675 0.766065
vt 0.891518 0.439621
vt 0.879675 0.442288
vt 0.941969 0.454131
vt 0.941969 0.754222
vt 0.941969 0.768731
vt 0.941969 0.439621
vt 0.956478 0.754222
vt 0.956478 0.454131
vt 0.953811 0.766065
vt 0.953811 0.442288
vt 0.357470 0.756288
vt 0.357470 0.770797
vt 0.057379 0.770797
vt 0.057379 0.756288
vt 0.371979 0.756288
vt 0.369313 0.768130
vt 0.042869 0.756288
vt 0.045536 0.768130
vt 0.057379 0.078069
vt 0.357470 0.078069
vt 0.371979 0.078069
vt 0.042869 0.078069
vt 0.357470 0.063560
vt 0.057379 0.063560
vt 0.369313 0.066226
vt 0.045536 0.066226
vt 0.423795 0.770797
vt 0.423795 0.756288
vt 0.723886 0.756288
vt 0.723886 0.770797
vt 0.409286 0.756288
vt 0.411952 0.768130
vt 0.423795 0.078069
vt 0.723886 0.078069
vt 0.738395 0.756288
vt 0.735729 0.768130
vt 0.409286 0.078069
vt 0.423795 0.063560
vt 0.723886 0.063560
vt 0.738395 0.078069
vt 0.411952 0.066226
vt 0.735729 0.066226
vt 0.054798 0.814614
vt 0.054798 0.800105
vt 0.733017 0.800105
vt 0.733017 0.814614
vt 0.040289 0.814614
vt 0.042956 0.802772
vt 0.747526 0.814614
vt 0.744860 0.802772
vt 0.733017 0.865065
vt 0.054798 0.865065
vt 0.040289 0.865065
vt 0.747526 0.865065
vt 0.054798 0.879574
vt 0.733017 0.879574
vt 0.042956 0.876908
vt 0.744860 0.876908
vt 0.782739 0.776534
vt 0.782739 0.762025
vt 0.833191 0.762025
vt 0.833191 0.776534
vt 0.768230 0.762025
vt 0.770897 0.773868
vt 0.782739 0.083807
vt 0.833191 0.083807
vt 0.847700 0.762025
vt 0.845033 0.773868
vt 0.768230 0.083807
vt 0.782739 0.069298
vt 0.833191 0.069298
vt 0.847700 0.083807
vt 0.770897 0.071964
vt 0.845033 0.071964
vn -0.008538 -0.999784 0.018966
vn -0.381328 -0.924363 0.011937
vn -0.381328 -0.924363 -0.011937
vn -0.008538 -0.999784 -0.018966
vn -0.924362 -0.381330 0.011937
vn -0.995705 -0.090895 0.017600
vn -0.995705 -0.090895 -0.017600
vn -0.924362 -0.381330 -0.011937
vn -0.007982 -0.091573 0.995766
vn -0.005386 -0.382093 0.924108
vn 0.005386 -0.382093 0.924108
vn 0.007982 -0.091573 0.995766
vn -0.005386 -0.924112 0.382083
vn 0.008538 -0.999784 0.018966
vn 0.005386 -0.924112 0.382083
vn -0.924956 -0.060495 0.375228
vn -0.924956 0.060496 0.375228
vn -0.995705 0.090895 0.017600
vn -0.375239 -0.060496 0.924952
vn -0.007982 0.091573 0.995766
vn -0.375238 0.060496 0.924952
vn 0.995705 -0.090895 0.017600
vn 0.924362 -0.381329 0.011936
vn 0.924362 -0.381330 -0.011936
vn 0.995705 -0.090895 -0.017600
vn 0.381325 -0.924364 0.011937
vn 0.008538 -0.999784 -0.018966
vn 0.381325 -0.924364 -0.011937
vn 0.375235 -0.060496 0.924954
vn 0.375234 0.060496 0.924954
vn 0.007982 0.091573 0.995766
vn 0.924958 -0.060490 0.375225
vn 0.995705 0.090895 0.017600
vn 0.924958 0.060489 0.375225
vn -0.924362 0.381330 0.011937
vn -0.924362 0.381330 -0.011937
vn -0.995705 0.090895 -0.017600
vn -0.381326 0.924363 0.011937
vn -0.008538 0.999784 0.018966
vn -0.008538 0.999784 -0.018966
vn -0.381326 0.924363 -0.011937
vn -0.005386 0.924112 0.382083
vn 0.005386 0.924112 0.382083
vn 0.008538 0.999784 0.018966
vn -0.005386 0.382093 0.924108
vn 0.005386 0.382092 0.924109
vn 0.381323 0.924365 0.011937
vn 0.381324 0.924365 -0.011937
vn 0.008538 0.999784 -0.018966
vn 0.924363 0.381329 0.011936
vn 0.995705 0.090895 -0.017600
vn 0.924362 0.381329 -0.011936
vn -0.924958 0.060495 -0.375224
vn -0.924958 -0.060495 -0.375223
vn -0.375221 0.060495 -0.924959
vn -0.007982 0.091567 -0.995767
vn -0.007982 -0.091567 -0.995767
vn -0.375221 -0.060495 -0.924959
vn -0.005386 0.382073 -0.924117
vn 0.005386 0.382073 -0.924117
vn 0.007982 0.091567 -0.995767
vn -0.005386 0.924115 -0.382077
vn 0.005386 0.924115 -0.382077
vn 0.375217 0.060495 -0.924961
vn 0.375217 -0.060495 -0.924961
vn 0.007982 -0.091567 -0.995767
vn 0.924960 0.060492 -0.375221
vn 0.924960 -0.060491 -0.375221
vn -0.005386 -0.924115 -0.382077
vn 0.005386 -0.924115 -0.382077
vn -0.005386 -0.382073 -0.924116
vn 0.005386 -0.382073 -0.924116
vn -0.887921 -0.325265 0.325268
vn -0.325270 -0.887918 0.325270
vn -0.325271 -0.325274 0.887917
vn 0.325258 -0.887925 0.325262
vn 0.887934 -0.325242 0.325255
vn 0.325261 -0.325267 0.887923
vn -0.325269 0.887919 0.325270
vn -0.887919 0.325269 0.325270
vn -0.325265 0.325275 0.887919
vn 0.887934 0.325241 0.325257
vn 0.325256 0.887927 0.325260
vn 0.325259 0.325266 0.887924
vn -0.325269 0.325270 -0.887919
vn -0.887919 0.325270 -0.325268
vn -0.325272 0.887918 -0.325269
vn 0.887928 0.325260 -0.325253
vn 0.325262 0.325259 -0.887925
vn 0.325262 0.887924 -0.325261
vn -0.325276 -0.887917 -0.325268
vn -0.887920 -0.325267 -0.325268
vn -0.325269 -0.325269 -0.887919
vn 0.887930 -0.325256 -0.325253
vn 0.325267 -0.887921 -0.325264
vn 0.325261 -0.325260 -0.887925
s 1
g Pillow
usemtl lambert7SG
f 2/33/1 1/34/2 37/35/3 42/36/4
s 2
f 1/1/5 6/2/6 38/3/7 37/4/8
s 3
f 4/65/9 3/66/10 11/67/11 10/68/12
s 1
f 3/37/13 2/33/1 12/42/14 11/43/15
s 2
f 6/2/6 5/5/16 15/11/17 14/7/18
s 3
f 5/69/19 4/65/9 16/74/20 15/75/21
s 4
f 8/17/22 7/18/23 43/19/24 48/20/25
s 1
f 7/45/26 12/42/14 44/41/27 43/46/28
s 3
f 10/68/12 9/71/29 23/76/30 22/73/31
s 4
f 9/21/32 8/17/22 24/26/33 23/27/34
s 2
f 14/7/18 13/12/35 27/13/36 26/8/37
s 5
f 13/49/38 18/50/39 28/51/40 27/52/41
f 18/50/39 17/53/42 21/59/43 20/55/44
s 3
f 17/77/45 16/74/20 22/73/31 21/78/46
s 5
f 20/55/44 19/60/47 35/61/48 34/56/49
s 4
f 19/29/50 24/26/33 36/25/51 35/30/52
s 2
f 26/8/37 25/14/53 39/9/54 38/3/7
s 6
f 25/81/55 30/82/56 40/83/57 39/84/58
f 30/82/56 29/85/59 33/91/60 32/87/61
s 5
f 29/57/62 28/51/40 34/56/49 33/62/63
s 6
f 32/87/61 31/92/64 47/93/65 46/88/66
s 4
f 31/28/67 36/25/51 48/20/25 47/23/68
s 1
f 42/36/4 41/39/69 45/44/70 44/41/27
s 6
f 41/89/71 40/83/57 46/88/66 45/94/72
s 3
f 4/65/9 10/68/12 22/73/31 16/74/20
s 5
f 18/50/39 20/55/44 34/56/49 28/51/40
s 6
f 30/82/56 32/87/61 46/88/66 40/83/57
s 1
f 42/36/4 44/41/27 12/42/14 2/33/1
s 4
f 8/17/22 48/20/25 36/25/51 24/26/33
s 2
f 38/3/7 6/2/6 14/7/18 26/8/37
f 5/5/16 6/2/6 1/1/5 49/6/73
s 1
f 1/34/2 2/33/1 3/37/13 49/38/74
s 3
f 3/66/10 4/65/9 5/69/19 49/70/75
s 1
f 11/43/15 12/42/14 7/45/26 50/47/76
s 4
f 7/18/23 8/17/22 9/21/32 50/22/77
s 3
f 9/71/29 10/68/12 11/67/11 50/72/78
s 5
f 17/53/42 18/50/39 13/49/38 51/54/79
s 2
f 13/12/35 14/7/18 15/11/17 51/15/80
s 3
f 15/75/21 16/74/20 17/77/45 51/79/81
s 4
f 23/27/34 24/26/33 19/29/50 52/31/82
s 5
f 19/60/47 20/55/44 21/59/43 52/63/83
s 3
f 21/78/46 22/73/31 23/76/30 52/80/84
s 6
f 29/85/59 30/82/56 25/81/55 53/86/85
s 2
f 25/14/53 26/8/37 27/13/36 53/16/86
s 5
f 27/52/41 28/51/40 29/57/62 53/58/87
s 4
f 35/30/52 36/25/51 31/28/67 54/32/88
s 6
f 31/92/64 32/87/61 33/91/60 54/95/89
s 5
f 33/62/63 34/56/49 35/61/48 54/64/90
s 1
f 41/39/69 42/36/4 37/35/3 55/40/91
s 2
f 37/4/8 38/3/7 39/9/54 55/10/92
s 6
f 39/84/58 40/83/57 41/89/71 55/90/93
s 4
f 47/23/68 48/20/25 43/19/24 56/24/94
s 1
f 43/46/28 44/41/27 45/44/70 56/48/95
s 6
f 45/94/72 46/88/66 47/93/65 56/96/96
